STARTFONT 2.1
FONT -nil-FFT-medium-r-normal--12-120-72-72-c-60-iso8859-1
SIZE 12 72 72
FONTBOUNDINGBOX 6 13 0 -3
COMMENT "Generated by fontforge, http://fontforge.sourceforge.net"
STARTPROPERTIES 13
CAP_HEIGHT 10
POINT_SIZE 120
WEIGHT 10
RESOLUTION_X 72
RESOLUTION_Y 72
X_HEIGHT 5
QUAD_WIDTH 6
FAMILY_NAME "FFT"
WEIGHT_NAME "Medium"
SLANT "R"
CHARSET_REGISTRY "ISO8859"
CHARSET_ENCODING "1"
RESOLUTION 99
ENDPROPERTIES
CHARS 256
STARTCHAR zero.dup1
ENCODING 0
SWIDTH 23437 0
DWIDTH 6 0
BBX 1 1 5 -2
BITMAP
00
ENDCHAR
STARTCHAR one.dup2
ENCODING 1
SWIDTH 23437 0
DWIDTH 6 0
BBX 1 1 5 -2
BITMAP
00
ENDCHAR
STARTCHAR two.dup3
ENCODING 2
SWIDTH 23437 0
DWIDTH 6 0
BBX 1 1 5 -2
BITMAP
00
ENDCHAR
STARTCHAR three.dup4
ENCODING 3
SWIDTH 23437 0
DWIDTH 6 0
BBX 1 1 5 -2
BITMAP
00
ENDCHAR
STARTCHAR four.dup5
ENCODING 4
SWIDTH 23437 0
DWIDTH 6 0
BBX 1 1 5 -2
BITMAP
00
ENDCHAR
STARTCHAR five.dup6
ENCODING 5
SWIDTH 23437 0
DWIDTH 6 0
BBX 1 1 5 -2
BITMAP
00
ENDCHAR
STARTCHAR six.dup7
ENCODING 6
SWIDTH 23437 0
DWIDTH 6 0
BBX 1 1 5 -2
BITMAP
00
ENDCHAR
STARTCHAR seven.dup8
ENCODING 7
SWIDTH 23437 0
DWIDTH 6 0
BBX 1 1 5 -2
BITMAP
00
ENDCHAR
STARTCHAR eight.dup9
ENCODING 8
SWIDTH 23437 0
DWIDTH 6 0
BBX 1 1 5 -2
BITMAP
00
ENDCHAR
STARTCHAR nine.dup10
ENCODING 9
SWIDTH 23437 0
DWIDTH 6 0
BBX 1 1 5 -2
BITMAP
00
ENDCHAR
STARTCHAR $10
ENCODING 10
SWIDTH 23437 0
DWIDTH 6 0
BBX 1 1 5 -2
BITMAP
00
ENDCHAR
STARTCHAR $11
ENCODING 11
SWIDTH 23437 0
DWIDTH 6 0
BBX 1 1 5 -2
BITMAP
00
ENDCHAR
STARTCHAR $12
ENCODING 12
SWIDTH 23437 0
DWIDTH 6 0
BBX 1 1 5 -2
BITMAP
00
ENDCHAR
STARTCHAR $13
ENCODING 13
SWIDTH 23437 0
DWIDTH 6 0
BBX 1 1 5 -2
BITMAP
00
ENDCHAR
STARTCHAR $14
ENCODING 14
SWIDTH 23437 0
DWIDTH 6 0
BBX 1 1 5 -2
BITMAP
00
ENDCHAR
STARTCHAR $15
ENCODING 15
SWIDTH 23437 0
DWIDTH 6 0
BBX 1 1 5 -2
BITMAP
00
ENDCHAR
STARTCHAR $16
ENCODING 16
SWIDTH 23437 0
DWIDTH 6 0
BBX 1 1 5 -2
BITMAP
00
ENDCHAR
STARTCHAR $17
ENCODING 17
SWIDTH 23437 0
DWIDTH 6 0
BBX 1 1 5 -2
BITMAP
00
ENDCHAR
STARTCHAR $18
ENCODING 18
SWIDTH 23437 0
DWIDTH 6 0
BBX 1 1 5 -2
BITMAP
00
ENDCHAR
STARTCHAR $19
ENCODING 19
SWIDTH 23437 0
DWIDTH 6 0
BBX 1 1 5 -2
BITMAP
00
ENDCHAR
STARTCHAR $20
ENCODING 20
SWIDTH 23437 0
DWIDTH 6 0
BBX 1 1 5 -2
BITMAP
00
ENDCHAR
STARTCHAR $21
ENCODING 21
SWIDTH 23437 0
DWIDTH 6 0
BBX 1 1 5 -2
BITMAP
00
ENDCHAR
STARTCHAR $22
ENCODING 22
SWIDTH 23437 0
DWIDTH 6 0
BBX 1 1 5 -2
BITMAP
00
ENDCHAR
STARTCHAR $23
ENCODING 23
SWIDTH 23437 0
DWIDTH 6 0
BBX 1 1 5 -2
BITMAP
00
ENDCHAR
STARTCHAR $24
ENCODING 24
SWIDTH 23437 0
DWIDTH 6 0
BBX 1 1 5 -2
BITMAP
00
ENDCHAR
STARTCHAR $25
ENCODING 25
SWIDTH 23437 0
DWIDTH 6 0
BBX 1 1 5 -2
BITMAP
00
ENDCHAR
STARTCHAR $26
ENCODING 26
SWIDTH 23437 0
DWIDTH 6 0
BBX 1 1 5 -2
BITMAP
00
ENDCHAR
STARTCHAR $27
ENCODING 27
SWIDTH 23437 0
DWIDTH 6 0
BBX 1 1 5 -2
BITMAP
00
ENDCHAR
STARTCHAR $28
ENCODING 28
SWIDTH 23437 0
DWIDTH 6 0
BBX 1 1 5 -2
BITMAP
00
ENDCHAR
STARTCHAR $29
ENCODING 29
SWIDTH 23437 0
DWIDTH 6 0
BBX 1 1 5 -2
BITMAP
00
ENDCHAR
STARTCHAR $30
ENCODING 30
SWIDTH 23437 0
DWIDTH 6 0
BBX 1 1 5 -2
BITMAP
00
ENDCHAR
STARTCHAR $31
ENCODING 31
SWIDTH 23437 0
DWIDTH 6 0
BBX 1 1 5 -2
BITMAP
00
ENDCHAR
STARTCHAR $32
ENCODING 32
SWIDTH 23437 0
DWIDTH 6 0
BBX 1 1 5 -2
BITMAP
00
ENDCHAR
STARTCHAR $33
ENCODING 33
SWIDTH 23437 0
DWIDTH 6 0
BBX 2 8 2 0
BITMAP
C0
C0
C0
C0
80
80
00
80
ENDCHAR
STARTCHAR $34
ENCODING 34
SWIDTH 23437 0
DWIDTH 6 0
BBX 3 2 1 6
BITMAP
A0
A0
ENDCHAR
STARTCHAR $35
ENCODING 35
SWIDTH 23437 0
DWIDTH 6 0
BBX 5 6 0 0
BITMAP
50
F8
50
50
F8
50
ENDCHAR
STARTCHAR $36
ENCODING 36
SWIDTH 23437 0
DWIDTH 6 0
BBX 5 10 0 -1
BITMAP
20
70
A8
A0
70
28
28
A8
70
20
ENDCHAR
STARTCHAR $37
ENCODING 37
SWIDTH 23437 0
DWIDTH 6 0
BBX 5 8 0 0
BITMAP
78
A8
A8
50
30
68
A8
90
ENDCHAR
STARTCHAR $38
ENCODING 38
SWIDTH 23437 0
DWIDTH 6 0
BBX 5 8 0 0
BITMAP
60
90
A0
40
A0
A8
90
68
ENDCHAR
STARTCHAR $39
ENCODING 39
SWIDTH 332 0
DWIDTH 4 0
BBX 2 2 1 6
BITMAP
C0
80
ENDCHAR
STARTCHAR $40
ENCODING 40
SWIDTH 23437 0
DWIDTH 6 0
BBX 3 10 1 -1
BITMAP
20
40
C0
80
80
80
80
C0
40
20
ENDCHAR
STARTCHAR $41
ENCODING 41
SWIDTH 23437 0
DWIDTH 6 0
BBX 3 10 1 -1
BITMAP
80
40
60
20
20
20
20
60
40
80
ENDCHAR
STARTCHAR $42
ENCODING 42
SWIDTH 23437 0
DWIDTH 6 0
BBX 5 5 0 0
BITMAP
20
A8
70
A8
20
ENDCHAR
STARTCHAR $43
ENCODING 43
SWIDTH 23437 0
DWIDTH 6 0
BBX 5 5 0 1
BITMAP
20
20
F8
20
20
ENDCHAR
STARTCHAR $44
ENCODING 44
SWIDTH 23437 0
DWIDTH 6 0
BBX 2 4 1 -2
BITMAP
C0
C0
40
80
ENDCHAR
STARTCHAR $45
ENCODING 45
SWIDTH 23437 0
DWIDTH 6 0
BBX 3 1 1 3
BITMAP
E0
ENDCHAR
STARTCHAR $46
ENCODING 46
SWIDTH 332 0
DWIDTH 4 0
BBX 2 2 1 0
BITMAP
40
80
ENDCHAR
STARTCHAR $47
ENCODING 47
SWIDTH 23437 0
DWIDTH 6 0
BBX 5 10 0 -2
BITMAP
08
08
10
10
20
20
40
40
80
80
ENDCHAR
STARTCHAR $48
ENCODING 48
SWIDTH 23437 0
DWIDTH 6 0
BBX 5 8 0 0
BITMAP
70
88
88
88
88
88
88
70
ENDCHAR
STARTCHAR $49
ENCODING 49
SWIDTH 332 0
DWIDTH 4 0
BBX 3 8 0 0
BITMAP
40
40
C0
40
40
40
40
E0
ENDCHAR
STARTCHAR $50
ENCODING 50
SWIDTH 23437 0
DWIDTH 6 0
BBX 5 8 0 0
BITMAP
70
88
88
10
20
40
80
F8
ENDCHAR
STARTCHAR $51
ENCODING 51
SWIDTH 23437 0
DWIDTH 6 0
BBX 5 8 0 0
BITMAP
F8
08
10
20
10
88
88
70
ENDCHAR
STARTCHAR $52
ENCODING 52
SWIDTH 23437 0
DWIDTH 6 0
BBX 5 8 0 0
BITMAP
30
70
50
D0
90
90
F8
10
ENDCHAR
STARTCHAR $53
ENCODING 53
SWIDTH 23437 0
DWIDTH 6 0
BBX 5 8 0 0
BITMAP
F8
80
F0
98
08
08
98
70
ENDCHAR
STARTCHAR $54
ENCODING 54
SWIDTH 23437 0
DWIDTH 6 0
BBX 5 8 0 0
BITMAP
70
88
80
F0
88
88
88
70
ENDCHAR
STARTCHAR $55
ENCODING 55
SWIDTH 23437 0
DWIDTH 6 0
BBX 5 8 0 0
BITMAP
F8
88
98
10
30
20
20
20
ENDCHAR
STARTCHAR $56
ENCODING 56
SWIDTH 23437 0
DWIDTH 6 0
BBX 5 8 0 0
BITMAP
70
88
88
70
88
88
88
70
ENDCHAR
STARTCHAR $57
ENCODING 57
SWIDTH 23437 0
DWIDTH 6 0
BBX 5 8 0 0
BITMAP
70
88
88
88
78
10
20
40
ENDCHAR
STARTCHAR $58
ENCODING 58
SWIDTH 332 0
DWIDTH 4 0
BBX 2 4 1 1
BITMAP
80
00
00
C0
ENDCHAR
STARTCHAR $59
ENCODING 59
SWIDTH 332 0
DWIDTH 4 0
BBX 2 5 1 0
BITMAP
80
00
00
C0
80
ENDCHAR
STARTCHAR $60
ENCODING 60
SWIDTH 23437 0
DWIDTH 6 0
BBX 4 7 1 1
BITMAP
10
20
40
80
40
20
10
ENDCHAR
STARTCHAR $61
ENCODING 61
SWIDTH 23437 0
DWIDTH 6 0
BBX 5 3 0 3
BITMAP
F8
00
F8
ENDCHAR
STARTCHAR $62
ENCODING 62
SWIDTH 23437 0
DWIDTH 6 0
BBX 4 7 1 1
BITMAP
80
40
20
10
20
40
80
ENDCHAR
STARTCHAR $63
ENCODING 63
SWIDTH 23437 0
DWIDTH 6 0
BBX 5 8 0 0
BITMAP
F8
88
88
38
20
20
00
20
ENDCHAR
STARTCHAR $64
ENCODING 64
SWIDTH 23437 0
DWIDTH 6 0
BBX 5 8 0 0
BITMAP
70
88
B8
A8
B8
80
80
78
ENDCHAR
STARTCHAR $65
ENCODING 65
SWIDTH 23437 0
DWIDTH 6 0
BBX 5 8 0 0
BITMAP
20
20
70
50
50
F8
88
88
ENDCHAR
STARTCHAR $66
ENCODING 66
SWIDTH 23437 0
DWIDTH 6 0
BBX 5 8 0 0
BITMAP
F0
48
48
70
48
48
48
F0
ENDCHAR
STARTCHAR $67
ENCODING 67
SWIDTH 23437 0
DWIDTH 6 0
BBX 5 8 0 0
BITMAP
70
D8
80
80
80
80
D8
70
ENDCHAR
STARTCHAR $68
ENCODING 68
SWIDTH 23437 0
DWIDTH 6 0
BBX 5 8 0 0
BITMAP
F0
58
48
48
48
48
58
F0
ENDCHAR
STARTCHAR $69
ENCODING 69
SWIDTH 23437 0
DWIDTH 6 0
BBX 5 8 0 0
BITMAP
F8
48
50
70
50
40
48
F8
ENDCHAR
STARTCHAR $70
ENCODING 70
SWIDTH 23437 0
DWIDTH 6 0
BBX 5 8 0 0
BITMAP
F8
48
50
70
50
40
40
E0
ENDCHAR
STARTCHAR $71
ENCODING 71
SWIDTH 23437 0
DWIDTH 6 0
BBX 5 8 0 0
BITMAP
70
C8
80
B8
88
88
D8
70
ENDCHAR
STARTCHAR $72
ENCODING 72
SWIDTH 23437 0
DWIDTH 6 0
BBX 5 8 0 0
BITMAP
88
88
88
F8
88
88
88
88
ENDCHAR
STARTCHAR $73
ENCODING 73
SWIDTH 332 0
DWIDTH 4 0
BBX 3 8 0 0
BITMAP
E0
40
40
40
40
40
40
E0
ENDCHAR
STARTCHAR $74
ENCODING 74
SWIDTH 23437 0
DWIDTH 6 0
BBX 5 8 0 0
BITMAP
08
08
08
08
08
88
D8
70
ENDCHAR
STARTCHAR $75
ENCODING 75
SWIDTH 23437 0
DWIDTH 6 0
BBX 5 8 0 0
BITMAP
88
90
A0
C0
C0
A0
90
88
ENDCHAR
STARTCHAR $76
ENCODING 76
SWIDTH 23437 0
DWIDTH 6 0
BBX 5 8 0 0
BITMAP
E0
40
40
40
40
40
48
F8
ENDCHAR
STARTCHAR $77
ENCODING 77
SWIDTH 23437 0
DWIDTH 6 0
BBX 5 8 0 0
BITMAP
88
D8
D8
F8
A8
A8
88
88
ENDCHAR
STARTCHAR $78
ENCODING 78
SWIDTH 23437 0
DWIDTH 6 0
BBX 5 8 0 0
BITMAP
88
C8
C8
E8
B8
98
98
88
ENDCHAR
STARTCHAR $79
ENCODING 79
SWIDTH 23437 0
DWIDTH 6 0
BBX 5 8 0 0
BITMAP
70
D8
88
88
88
88
D8
70
ENDCHAR
STARTCHAR $80
ENCODING 80
SWIDTH 23437 0
DWIDTH 6 0
BBX 5 8 0 0
BITMAP
F0
58
48
48
58
70
40
E0
ENDCHAR
STARTCHAR $81
ENCODING 81
SWIDTH 23437 0
DWIDTH 6 0
BBX 5 9 0 -1
BITMAP
70
D8
88
88
88
88
D8
70
18
ENDCHAR
STARTCHAR $82
ENCODING 82
SWIDTH 582 0
DWIDTH 7 0
BBX 6 8 0 0
BITMAP
F0
58
48
58
70
50
58
EC
ENDCHAR
STARTCHAR $83
ENCODING 83
SWIDTH 23437 0
DWIDTH 6 0
BBX 5 8 0 0
BITMAP
78
88
80
70
18
08
88
70
ENDCHAR
STARTCHAR $84
ENCODING 84
SWIDTH 23437 0
DWIDTH 6 0
BBX 5 8 0 0
BITMAP
F8
A8
20
20
20
20
20
70
ENDCHAR
STARTCHAR $85
ENCODING 85
SWIDTH 23437 0
DWIDTH 6 0
BBX 5 8 0 0
BITMAP
88
88
88
88
88
88
D8
70
ENDCHAR
STARTCHAR $86
ENCODING 86
SWIDTH 23437 0
DWIDTH 6 0
BBX 5 8 0 0
BITMAP
88
88
D8
50
50
70
20
20
ENDCHAR
STARTCHAR $87
ENCODING 87
SWIDTH 23437 0
DWIDTH 6 0
BBX 5 8 0 0
BITMAP
88
A8
A8
A8
A8
F8
50
50
ENDCHAR
STARTCHAR $88
ENCODING 88
SWIDTH 23437 0
DWIDTH 6 0
BBX 5 8 0 0
BITMAP
88
D8
50
20
20
50
D8
88
ENDCHAR
STARTCHAR $89
ENCODING 89
SWIDTH 23437 0
DWIDTH 6 0
BBX 5 8 0 0
BITMAP
88
88
D8
50
70
20
20
20
ENDCHAR
STARTCHAR $90
ENCODING 90
SWIDTH 23437 0
DWIDTH 6 0
BBX 5 8 0 0
BITMAP
F8
08
10
20
60
40
80
F8
ENDCHAR
STARTCHAR $91
ENCODING 91
SWIDTH 23437 0
DWIDTH 6 0
BBX 2 10 2 -1
BITMAP
C0
80
80
80
80
80
80
80
80
C0
ENDCHAR
STARTCHAR $92
ENCODING 92
SWIDTH 23437 0
DWIDTH 6 0
BBX 5 10 1 -2
BITMAP
80
80
40
40
20
20
10
10
08
08
ENDCHAR
STARTCHAR $93
ENCODING 93
SWIDTH 23437 0
DWIDTH 6 0
BBX 2 10 1 -1
BITMAP
C0
40
40
40
40
40
40
40
40
C0
ENDCHAR
STARTCHAR $94
ENCODING 94
SWIDTH 23437 0
DWIDTH 6 0
BBX 5 3 0 5
BITMAP
20
50
88
ENDCHAR
STARTCHAR $95
ENCODING 95
SWIDTH 23437 0
DWIDTH 6 0
BBX 6 1 0 -2
BITMAP
FC
ENDCHAR
STARTCHAR $96
ENCODING 96
SWIDTH 23437 0
DWIDTH 6 0
BBX 2 2 1 7
BITMAP
80
40
ENDCHAR
STARTCHAR $97
ENCODING 97
SWIDTH 332 0
DWIDTH 4 0
BBX 3 6 0 0
BITMAP
E0
20
60
A0
A0
E0
ENDCHAR
STARTCHAR $98
ENCODING 98
SWIDTH 332 0
DWIDTH 4 0
BBX 3 8 0 0
BITMAP
80
80
C0
A0
A0
A0
A0
E0
ENDCHAR
STARTCHAR $99
ENCODING 99
SWIDTH 332 0
DWIDTH 4 0
BBX 3 6 0 0
BITMAP
E0
A0
80
80
A0
E0
ENDCHAR
STARTCHAR $100
ENCODING 100
SWIDTH 332 0
DWIDTH 4 0
BBX 3 8 0 0
BITMAP
20
20
60
A0
A0
A0
A0
E0
ENDCHAR
STARTCHAR $101
ENCODING 101
SWIDTH 332 0
DWIDTH 4 0
BBX 3 6 0 0
BITMAP
E0
A0
A0
E0
80
E0
ENDCHAR
STARTCHAR $102
ENCODING 102
SWIDTH 332 0
DWIDTH 4 0
BBX 3 8 0 0
BITMAP
60
40
E0
40
40
40
40
40
ENDCHAR
STARTCHAR $103
ENCODING 103
SWIDTH 332 0
DWIDTH 4 0
BBX 3 8 0 -2
BITMAP
E0
A0
A0
A0
A0
E0
20
E0
ENDCHAR
STARTCHAR $104
ENCODING 104
SWIDTH 332 0
DWIDTH 4 0
BBX 3 8 0 0
BITMAP
80
80
E0
A0
A0
A0
A0
A0
ENDCHAR
STARTCHAR $105
ENCODING 105
SWIDTH 164 0
DWIDTH 2 0
BBX 2 8 0 0
BITMAP
80
00
C0
80
80
80
80
80
ENDCHAR
STARTCHAR $106
ENCODING 106
SWIDTH 332 0
DWIDTH 4 0
BBX 3 10 0 -2
BITMAP
20
00
20
20
20
20
20
20
20
E0
ENDCHAR
STARTCHAR $107
ENCODING 107
SWIDTH 332 0
DWIDTH 4 0
BBX 3 8 0 0
BITMAP
80
80
A0
E0
C0
E0
A0
A0
ENDCHAR
STARTCHAR $108
ENCODING 108
SWIDTH 164 0
DWIDTH 2 0
BBX 2 8 0 0
BITMAP
80
80
80
80
80
80
80
C0
ENDCHAR
STARTCHAR $109
ENCODING 109
SWIDTH 23437 0
DWIDTH 6 0
BBX 5 6 0 0
BITMAP
F8
A8
A8
A8
A8
A8
ENDCHAR
STARTCHAR $110
ENCODING 110
SWIDTH 332 0
DWIDTH 4 0
BBX 3 6 0 0
BITMAP
E0
A0
A0
A0
A0
A0
ENDCHAR
STARTCHAR $111
ENCODING 111
SWIDTH 332 0
DWIDTH 4 0
BBX 3 6 0 0
BITMAP
E0
A0
A0
A0
A0
E0
ENDCHAR
STARTCHAR $112
ENCODING 112
SWIDTH 332 0
DWIDTH 4 0
BBX 3 8 0 -2
BITMAP
E0
A0
A0
A0
A0
E0
80
80
ENDCHAR
STARTCHAR $113
ENCODING 113
SWIDTH 332 0
DWIDTH 4 0
BBX 3 8 0 -2
BITMAP
60
A0
A0
A0
A0
60
20
20
ENDCHAR
STARTCHAR $114
ENCODING 114
SWIDTH 332 0
DWIDTH 4 0
BBX 3 6 0 0
BITMAP
E0
A0
80
80
80
80
ENDCHAR
STARTCHAR $115
ENCODING 115
SWIDTH 332 0
DWIDTH 4 0
BBX 3 6 0 0
BITMAP
E0
80
E0
20
20
E0
ENDCHAR
STARTCHAR $116
ENCODING 116
SWIDTH 332 0
DWIDTH 4 0
BBX 3 7 0 0
BITMAP
40
E0
40
40
40
40
60
ENDCHAR
STARTCHAR $117
ENCODING 117
SWIDTH 332 0
DWIDTH 4 0
BBX 3 6 0 0
BITMAP
A0
A0
A0
A0
A0
E0
ENDCHAR
STARTCHAR $118
ENCODING 118
SWIDTH 332 0
DWIDTH 4 0
BBX 3 6 0 0
BITMAP
A0
A0
A0
E0
40
40
ENDCHAR
STARTCHAR $119
ENCODING 119
SWIDTH 23437 0
DWIDTH 6 0
BBX 5 6 0 0
BITMAP
A8
A8
A8
F8
50
50
ENDCHAR
STARTCHAR $120
ENCODING 120
SWIDTH 332 0
DWIDTH 4 0
BBX 3 6 0 0
BITMAP
A0
E0
40
E0
A0
A0
ENDCHAR
STARTCHAR $121
ENCODING 121
SWIDTH 332 0
DWIDTH 4 0
BBX 3 9 0 -3
BITMAP
A0
A0
A0
A0
A0
E0
40
C0
80
ENDCHAR
STARTCHAR $122
ENCODING 122
SWIDTH 332 0
DWIDTH 4 0
BBX 3 6 0 0
BITMAP
E0
20
40
C0
80
E0
ENDCHAR
STARTCHAR $123
ENCODING 123
SWIDTH 23437 0
DWIDTH 6 0
BBX 3 11 1 -2
BITMAP
20
40
40
40
40
80
40
40
40
40
20
ENDCHAR
STARTCHAR $124
ENCODING 124
SWIDTH 23437 0
DWIDTH 6 0
BBX 1 10 2 -1
BITMAP
80
80
80
80
80
80
80
80
80
80
ENDCHAR
STARTCHAR $125
ENCODING 125
SWIDTH 23437 0
DWIDTH 6 0
BBX 3 11 1 -2
BITMAP
80
40
40
40
40
20
40
40
40
40
80
ENDCHAR
STARTCHAR $126
ENCODING 126
SWIDTH 23437 0
DWIDTH 6 0
BBX 5 2 0 4
BITMAP
68
B0
ENDCHAR
STARTCHAR $127
ENCODING 127
SWIDTH 23437 0
DWIDTH 6 0
BBX 1 1 5 -2
BITMAP
00
ENDCHAR
STARTCHAR $128
ENCODING 128
SWIDTH 23437 0
DWIDTH 6 0
BBX 1 1 5 -2
BITMAP
00
ENDCHAR
STARTCHAR $129
ENCODING 129
SWIDTH 23437 0
DWIDTH 6 0
BBX 1 1 5 -2
BITMAP
00
ENDCHAR
STARTCHAR $130
ENCODING 130
SWIDTH 23437 0
DWIDTH 6 0
BBX 2 3 0 -1
BITMAP
40
40
80
ENDCHAR
STARTCHAR $131
ENCODING 131
SWIDTH 23437 0
DWIDTH 6 0
BBX 5 12 0 -2
BITMAP
18
20
20
20
20
70
20
20
20
20
20
C0
ENDCHAR
STARTCHAR $132
ENCODING 132
SWIDTH 23437 0
DWIDTH 6 0
BBX 4 3 0 -1
BITMAP
50
50
A0
ENDCHAR
STARTCHAR $133
ENCODING 133
SWIDTH 23437 0
DWIDTH 6 0
BBX 5 1 0 0
BITMAP
A8
ENDCHAR
STARTCHAR $134
ENCODING 134
SWIDTH 23437 0
DWIDTH 6 0
BBX 3 6 1 2
BITMAP
40
E0
40
40
40
40
ENDCHAR
STARTCHAR $135
ENCODING 135
SWIDTH 23437 0
DWIDTH 6 0
BBX 3 6 1 2
BITMAP
40
E0
40
40
E0
40
ENDCHAR
STARTCHAR $136
ENCODING 136
SWIDTH 23437 0
DWIDTH 6 0
BBX 3 2 1 7
BITMAP
40
A0
ENDCHAR
STARTCHAR $137
ENCODING 137
SWIDTH 23437 0
DWIDTH 6 0
BBX 6 9 0 0
BITMAP
7C
A4
A8
50
20
68
D4
54
28
ENDCHAR
STARTCHAR $138
ENCODING 138
SWIDTH 23437 0
DWIDTH 6 0
BBX 5 10 0 0
BITMAP
50
20
70
88
80
70
08
08
88
70
ENDCHAR
STARTCHAR $139
ENCODING 139
SWIDTH 23437 0
DWIDTH 6 0
BBX 2 4 0 0
BITMAP
40
80
80
40
ENDCHAR
STARTCHAR $140
ENCODING 140
SWIDTH 23437 0
DWIDTH 6 0
BBX 5 8 0 0
BITMAP
78
A0
A0
B0
A0
A0
A0
78
ENDCHAR
STARTCHAR $141
ENCODING 141
SWIDTH 23437 0
DWIDTH 6 0
BBX 1 1 5 -2
BITMAP
00
ENDCHAR
STARTCHAR $142
ENCODING 142
SWIDTH 23437 0
DWIDTH 6 0
BBX 1 1 5 -2
BITMAP
00
ENDCHAR
STARTCHAR $143
ENCODING 143
SWIDTH 23437 0
DWIDTH 6 0
BBX 1 1 5 -2
BITMAP
00
ENDCHAR
STARTCHAR $144
ENCODING 144
SWIDTH 23437 0
DWIDTH 6 0
BBX 1 1 5 -2
BITMAP
00
ENDCHAR
STARTCHAR $145
ENCODING 145
SWIDTH 23437 0
DWIDTH 6 0
BBX 2 3 2 5
BITMAP
40
80
80
ENDCHAR
STARTCHAR $146
ENCODING 146
SWIDTH 23437 0
DWIDTH 6 0
BBX 2 3 2 5
BITMAP
40
40
80
ENDCHAR
STARTCHAR $147
ENCODING 147
SWIDTH 23437 0
DWIDTH 6 0
BBX 4 3 1 5
BITMAP
50
A0
A0
ENDCHAR
STARTCHAR $148
ENCODING 148
SWIDTH 23437 0
DWIDTH 6 0
BBX 4 3 1 5
BITMAP
50
50
A0
ENDCHAR
STARTCHAR $149
ENCODING 149
SWIDTH 23437 0
DWIDTH 6 0
BBX 5 5 0 2
BITMAP
70
F8
F8
F8
70
ENDCHAR
STARTCHAR $150
ENCODING 150
SWIDTH 23437 0
DWIDTH 6 0
BBX 3 1 1 3
BITMAP
E0
ENDCHAR
STARTCHAR $151
ENCODING 151
SWIDTH 23437 0
DWIDTH 6 0
BBX 6 1 0 3
BITMAP
FC
ENDCHAR
STARTCHAR $152
ENCODING 152
SWIDTH 23437 0
DWIDTH 6 0
BBX 5 2 0 7
BITMAP
68
B0
ENDCHAR
STARTCHAR $153
ENCODING 153
SWIDTH 23437 0
DWIDTH 6 0
BBX 6 3 0 5
BITMAP
F4
5C
5C
ENDCHAR
STARTCHAR $154
ENCODING 154
SWIDTH 23437 0
DWIDTH 6 0
BBX 5 9 0 0
BITMAP
50
20
00
00
78
80
70
08
F0
ENDCHAR
STARTCHAR $155
ENCODING 155
SWIDTH 23437 0
DWIDTH 6 0
BBX 2 4 0 0
BITMAP
80
40
40
80
ENDCHAR
STARTCHAR $156
ENCODING 156
SWIDTH 23437 0
DWIDTH 6 0
BBX 5 5 0 0
BITMAP
50
A8
B8
A0
58
ENDCHAR
STARTCHAR $157
ENCODING 157
SWIDTH 23437 0
DWIDTH 6 0
BBX 1 1 5 -2
BITMAP
00
ENDCHAR
STARTCHAR $158
ENCODING 158
SWIDTH 23437 0
DWIDTH 6 0
BBX 1 1 5 -2
BITMAP
00
ENDCHAR
STARTCHAR $159
ENCODING 159
SWIDTH 23437 0
DWIDTH 6 0
BBX 5 10 0 0
BITMAP
50
00
00
88
88
88
50
20
20
20
ENDCHAR
STARTCHAR $160
ENCODING 160
SWIDTH 23437 0
DWIDTH 6 0
BBX 1 1 5 -2
BITMAP
00
ENDCHAR
STARTCHAR $161
ENCODING 161
SWIDTH 23437 0
DWIDTH 6 0
BBX 1 8 3 0
BITMAP
80
00
80
80
80
80
80
80
ENDCHAR
STARTCHAR $162
ENCODING 162
SWIDTH 23437 0
DWIDTH 6 0
BBX 5 7 0 -1
BITMAP
20
70
A8
A0
A0
78
20
ENDCHAR
STARTCHAR $163
ENCODING 163
SWIDTH 23437 0
DWIDTH 6 0
BBX 5 9 0 0
BITMAP
60
90
80
E0
80
80
80
88
F0
ENDCHAR
STARTCHAR $164
ENCODING 164
SWIDTH 23437 0
DWIDTH 6 0
BBX 5 5 0 1
BITMAP
88
70
50
70
88
ENDCHAR
STARTCHAR $165
ENCODING 165
SWIDTH 23437 0
DWIDTH 6 0
BBX 5 8 0 0
BITMAP
88
50
F8
20
F8
20
20
20
ENDCHAR
STARTCHAR $166
ENCODING 166
SWIDTH 332 0
DWIDTH 4 0
BBX 1 9 1 0
BITMAP
80
80
80
80
80
80
80
80
80
ENDCHAR
STARTCHAR $167
ENCODING 167
SWIDTH 23437 0
DWIDTH 6 0
BBX 5 11 0 -1
BITMAP
70
88
48
A0
90
88
48
28
90
88
70
ENDCHAR
STARTCHAR $168
ENCODING 168
SWIDTH 23437 0
DWIDTH 6 0
BBX 3 1 1 7
BITMAP
A0
ENDCHAR
STARTCHAR $169
ENCODING 169
SWIDTH 23437 0
DWIDTH 6 0
BBX 5 8 0 0
BITMAP
E0
10
68
88
88
68
10
E0
ENDCHAR
STARTCHAR $170
ENCODING 170
SWIDTH 23437 0
DWIDTH 6 0
BBX 4 7 1 3
BITMAP
70
90
90
70
00
00
F0
ENDCHAR
STARTCHAR $171
ENCODING 171
SWIDTH 23437 0
DWIDTH 6 0
BBX 5 4 0 0
BITMAP
48
90
90
48
ENDCHAR
STARTCHAR $172
ENCODING 172
SWIDTH 23437 0
DWIDTH 6 0
BBX 5 3 0 2
BITMAP
F8
08
08
ENDCHAR
STARTCHAR $173
ENCODING 173
SWIDTH 23437 0
DWIDTH 6 0
BBX 5 1 0 3
BITMAP
F8
ENDCHAR
STARTCHAR $174
ENCODING 174
SWIDTH 23437 0
DWIDTH 6 0
BBX 5 7 0 1
BITMAP
E0
10
C8
A8
A8
C8
B0
ENDCHAR
STARTCHAR $175
ENCODING 175
SWIDTH 23437 0
DWIDTH 6 0
BBX 3 1 1 7
BITMAP
E0
ENDCHAR
STARTCHAR $176
ENCODING 176
SWIDTH 23437 0
DWIDTH 6 0
BBX 4 4 1 5
BITMAP
60
90
90
60
ENDCHAR
STARTCHAR $177
ENCODING 177
SWIDTH 23437 0
DWIDTH 6 0
BBX 5 6 0 1
BITMAP
20
20
F8
20
20
F8
ENDCHAR
STARTCHAR $178
ENCODING 178
SWIDTH 23437 0
DWIDTH 6 0
BBX 3 4 1 6
BITMAP
C0
20
40
E0
ENDCHAR
STARTCHAR $179
ENCODING 179
SWIDTH 23437 0
DWIDTH 6 0
BBX 3 5 1 5
BITMAP
C0
20
60
20
C0
ENDCHAR
STARTCHAR $180
ENCODING 180
SWIDTH 23437 0
DWIDTH 6 0
BBX 4 2 2 7
BITMAP
70
E0
ENDCHAR
STARTCHAR $181
ENCODING 181
SWIDTH 23437 0
DWIDTH 6 0
BBX 5 7 0 -2
BITMAP
90
90
90
90
E8
80
80
ENDCHAR
STARTCHAR $182
ENCODING 182
SWIDTH 23437 0
DWIDTH 6 0
BBX 5 9 0 0
BITMAP
78
A8
A8
A8
78
28
28
28
28
ENDCHAR
STARTCHAR $183
ENCODING 183
SWIDTH 332 0
DWIDTH 4 0
BBX 1 1 1 3
BITMAP
80
ENDCHAR
STARTCHAR $184
ENCODING 184
SWIDTH 23437 0
DWIDTH 6 0
BBX 4 3 1 -2
BITMAP
F0
70
E0
ENDCHAR
STARTCHAR $185
ENCODING 185
SWIDTH 23437 0
DWIDTH 6 0
BBX 3 4 1 6
BITMAP
C0
40
40
E0
ENDCHAR
STARTCHAR $186
ENCODING 186
SWIDTH 23437 0
DWIDTH 6 0
BBX 4 7 1 3
BITMAP
60
90
90
60
00
00
F0
ENDCHAR
STARTCHAR $187
ENCODING 187
SWIDTH 23437 0
DWIDTH 6 0
BBX 5 4 0 0
BITMAP
90
48
48
90
ENDCHAR
STARTCHAR $188
ENCODING 188
SWIDTH 23437 0
DWIDTH 6 0
BBX 6 10 0 0
BITMAP
C0
40
44
E8
10
20
48
98
38
08
ENDCHAR
STARTCHAR $189
ENCODING 189
SWIDTH 23437 0
DWIDTH 6 0
BBX 6 10 0 0
BITMAP
C0
40
44
E8
10
20
58
84
08
1C
ENDCHAR
STARTCHAR $190
ENCODING 190
SWIDTH 23437 0
DWIDTH 6 0
BBX 6 10 0 0
BITMAP
C0
20
64
28
D0
20
48
98
38
08
ENDCHAR
STARTCHAR $191
ENCODING 191
SWIDTH 23437 0
DWIDTH 6 0
BBX 5 8 0 0
BITMAP
20
00
20
40
80
80
88
70
ENDCHAR
STARTCHAR $192
ENCODING 192
SWIDTH 23437 0
DWIDTH 6 0
BBX 5 10 0 0
BITMAP
40
20
20
50
50
88
88
F8
88
88
ENDCHAR
STARTCHAR $193
ENCODING 193
SWIDTH 23437 0
DWIDTH 6 0
BBX 5 10 0 0
BITMAP
10
20
20
50
50
88
88
F8
88
88
ENDCHAR
STARTCHAR $194
ENCODING 194
SWIDTH 23437 0
DWIDTH 6 0
BBX 5 10 0 0
BITMAP
20
50
00
20
50
50
88
F8
88
88
ENDCHAR
STARTCHAR $195
ENCODING 195
SWIDTH 23437 0
DWIDTH 6 0
BBX 5 10 0 0
BITMAP
68
B0
20
50
50
88
88
F8
88
88
ENDCHAR
STARTCHAR $196
ENCODING 196
SWIDTH 23437 0
DWIDTH 6 0
BBX 5 10 0 0
BITMAP
50
00
20
50
50
88
88
F8
88
88
ENDCHAR
STARTCHAR $197
ENCODING 197
SWIDTH 23437 0
DWIDTH 6 0
BBX 5 10 0 0
BITMAP
20
50
20
50
50
88
88
F8
88
88
ENDCHAR
STARTCHAR $198
ENCODING 198
SWIDTH 23437 0
DWIDTH 6 0
BBX 5 8 0 0
BITMAP
78
A0
A0
F0
A0
A0
A0
B8
ENDCHAR
STARTCHAR $199
ENCODING 199
SWIDTH 23437 0
DWIDTH 6 0
BBX 5 10 0 -2
BITMAP
70
88
80
80
80
80
88
70
20
40
ENDCHAR
STARTCHAR $200
ENCODING 200
SWIDTH 23437 0
DWIDTH 6 0
BBX 5 10 0 0
BITMAP
40
20
F8
80
80
F0
80
80
80
F8
ENDCHAR
STARTCHAR $201
ENCODING 201
SWIDTH 23437 0
DWIDTH 6 0
BBX 5 10 0 0
BITMAP
10
20
F8
80
80
F0
80
80
80
F8
ENDCHAR
STARTCHAR $202
ENCODING 202
SWIDTH 23437 0
DWIDTH 6 0
BBX 5 10 0 0
BITMAP
20
50
F8
80
80
F0
80
80
80
F8
ENDCHAR
STARTCHAR $203
ENCODING 203
SWIDTH 23437 0
DWIDTH 6 0
BBX 5 10 0 0
BITMAP
50
00
F8
80
80
F0
80
80
80
F8
ENDCHAR
STARTCHAR $204
ENCODING 204
SWIDTH 23437 0
DWIDTH 6 0
BBX 5 10 0 0
BITMAP
40
20
F8
20
20
20
20
20
20
F8
ENDCHAR
STARTCHAR $205
ENCODING 205
SWIDTH 23437 0
DWIDTH 6 0
BBX 5 10 0 0
BITMAP
10
20
F8
20
20
20
20
20
20
F8
ENDCHAR
STARTCHAR $206
ENCODING 206
SWIDTH 23437 0
DWIDTH 6 0
BBX 5 10 0 0
BITMAP
20
50
00
F8
20
20
20
20
20
F8
ENDCHAR
STARTCHAR $207
ENCODING 207
SWIDTH 23437 0
DWIDTH 6 0
BBX 5 10 0 0
BITMAP
50
00
F8
20
20
20
20
20
20
F8
ENDCHAR
STARTCHAR $208
ENCODING 208
SWIDTH 23437 0
DWIDTH 6 0
BBX 6 8 0 0
BITMAP
78
44
44
E4
44
44
44
78
ENDCHAR
STARTCHAR $209
ENCODING 209
SWIDTH 23437 0
DWIDTH 6 0
BBX 5 10 0 0
BITMAP
68
B0
88
C8
A8
98
88
88
88
88
ENDCHAR
STARTCHAR $210
ENCODING 210
SWIDTH 23437 0
DWIDTH 6 0
BBX 5 10 0 0
BITMAP
40
20
70
88
88
88
88
88
88
70
ENDCHAR
STARTCHAR $211
ENCODING 211
SWIDTH 23437 0
DWIDTH 6 0
BBX 5 10 0 0
BITMAP
10
20
70
88
88
88
88
88
88
70
ENDCHAR
STARTCHAR $212
ENCODING 212
SWIDTH 23437 0
DWIDTH 6 0
BBX 5 10 0 0
BITMAP
20
50
00
70
88
88
88
88
88
70
ENDCHAR
STARTCHAR $213
ENCODING 213
SWIDTH 23437 0
DWIDTH 6 0
BBX 5 10 0 0
BITMAP
68
B0
70
88
88
88
88
88
88
70
ENDCHAR
STARTCHAR $214
ENCODING 214
SWIDTH 23437 0
DWIDTH 6 0
BBX 5 10 0 0
BITMAP
50
00
70
88
88
88
88
88
88
70
ENDCHAR
STARTCHAR $215
ENCODING 215
SWIDTH 23437 0
DWIDTH 6 0
BBX 5 5 0 2
BITMAP
88
50
20
50
88
ENDCHAR
STARTCHAR $216
ENCODING 216
SWIDTH 23437 0
DWIDTH 6 0
BBX 5 8 0 0
BITMAP
70
88
98
A8
C8
88
88
70
ENDCHAR
STARTCHAR $217
ENCODING 217
SWIDTH 23437 0
DWIDTH 6 0
BBX 5 10 0 0
BITMAP
40
20
88
88
88
88
88
88
88
70
ENDCHAR
STARTCHAR $218
ENCODING 218
SWIDTH 23437 0
DWIDTH 6 0
BBX 5 10 0 0
BITMAP
10
20
88
88
88
88
88
88
88
70
ENDCHAR
STARTCHAR $219
ENCODING 219
SWIDTH 23437 0
DWIDTH 6 0
BBX 5 10 0 0
BITMAP
20
50
00
88
88
88
88
88
88
70
ENDCHAR
STARTCHAR $220
ENCODING 220
SWIDTH 23437 0
DWIDTH 6 0
BBX 5 10 0 0
BITMAP
50
00
88
88
88
88
88
88
88
70
ENDCHAR
STARTCHAR $221
ENCODING 221
SWIDTH 23437 0
DWIDTH 6 0
BBX 5 10 0 0
BITMAP
10
20
88
88
88
88
50
20
20
20
ENDCHAR
STARTCHAR $222
ENCODING 222
SWIDTH 23437 0
DWIDTH 6 0
BBX 5 8 0 0
BITMAP
80
F0
88
88
88
F0
80
80
ENDCHAR
STARTCHAR $223
ENCODING 223
SWIDTH 23437 0
DWIDTH 6 0
BBX 5 10 0 -1
BITMAP
30
48
88
90
90
88
88
88
B0
80
ENDCHAR
STARTCHAR $224
ENCODING 224
SWIDTH 23437 0
DWIDTH 6 0
BBX 5 9 0 0
BITMAP
20
10
00
00
78
88
88
98
68
ENDCHAR
STARTCHAR $225
ENCODING 225
SWIDTH 23437 0
DWIDTH 6 0
BBX 5 9 0 0
BITMAP
10
20
00
00
78
88
88
98
68
ENDCHAR
STARTCHAR $226
ENCODING 226
SWIDTH 23437 0
DWIDTH 6 0
BBX 5 9 0 0
BITMAP
20
50
00
00
78
88
88
98
68
ENDCHAR
STARTCHAR $227
ENCODING 227
SWIDTH 23437 0
DWIDTH 6 0
BBX 5 9 0 0
BITMAP
68
B0
00
00
78
88
88
98
68
ENDCHAR
STARTCHAR $228
ENCODING 228
SWIDTH 23437 0
DWIDTH 6 0
BBX 5 8 0 0
BITMAP
50
00
00
78
88
88
98
68
ENDCHAR
STARTCHAR $229
ENCODING 229
SWIDTH 23437 0
DWIDTH 6 0
BBX 5 9 0 0
BITMAP
20
50
20
00
78
88
88
98
68
ENDCHAR
STARTCHAR $230
ENCODING 230
SWIDTH 23437 0
DWIDTH 6 0
BBX 5 5 0 0
BITMAP
70
A8
B8
A0
78
ENDCHAR
STARTCHAR $231
ENCODING 231
SWIDTH 23437 0
DWIDTH 6 0
BBX 5 7 0 -2
BITMAP
70
88
80
80
78
20
40
ENDCHAR
STARTCHAR $232
ENCODING 232
SWIDTH 23437 0
DWIDTH 6 0
BBX 5 9 0 0
BITMAP
40
20
00
00
70
88
F8
80
78
ENDCHAR
STARTCHAR $233
ENCODING 233
SWIDTH 23437 0
DWIDTH 6 0
BBX 5 9 0 0
BITMAP
10
20
00
00
70
88
F8
80
78
ENDCHAR
STARTCHAR $234
ENCODING 234
SWIDTH 23437 0
DWIDTH 6 0
BBX 5 9 0 0
BITMAP
20
50
00
00
70
88
F8
80
78
ENDCHAR
STARTCHAR $235
ENCODING 235
SWIDTH 23437 0
DWIDTH 6 0
BBX 5 8 0 0
BITMAP
50
00
00
70
88
F8
80
78
ENDCHAR
STARTCHAR $236
ENCODING 236
SWIDTH 23437 0
DWIDTH 6 0
BBX 3 9 1 0
BITMAP
80
40
00
00
C0
40
40
40
E0
ENDCHAR
STARTCHAR $237
ENCODING 237
SWIDTH 23437 0
DWIDTH 6 0
BBX 3 9 1 0
BITMAP
20
40
00
00
C0
40
40
40
E0
ENDCHAR
STARTCHAR $238
ENCODING 238
SWIDTH 23437 0
DWIDTH 6 0
BBX 3 9 1 0
BITMAP
40
A0
00
00
C0
40
40
40
E0
ENDCHAR
STARTCHAR $239
ENCODING 239
SWIDTH 23437 0
DWIDTH 6 0
BBX 3 8 1 0
BITMAP
A0
00
00
C0
40
40
40
E0
ENDCHAR
STARTCHAR $240
ENCODING 240
SWIDTH 23437 0
DWIDTH 6 0
BBX 5 9 0 0
BITMAP
60
60
10
08
78
88
88
88
70
ENDCHAR
STARTCHAR $241
ENCODING 241
SWIDTH 23437 0
DWIDTH 6 0
BBX 5 9 0 0
BITMAP
68
B0
00
00
B0
C8
88
88
88
ENDCHAR
STARTCHAR $242
ENCODING 242
SWIDTH 23437 0
DWIDTH 6 0
BBX 5 9 0 0
BITMAP
40
20
00
00
70
88
88
88
70
ENDCHAR
STARTCHAR $243
ENCODING 243
SWIDTH 23437 0
DWIDTH 6 0
BBX 5 9 0 0
BITMAP
10
20
00
00
70
88
88
88
70
ENDCHAR
STARTCHAR $244
ENCODING 244
SWIDTH 23437 0
DWIDTH 6 0
BBX 5 9 0 0
BITMAP
20
50
00
00
70
88
88
88
70
ENDCHAR
STARTCHAR $245
ENCODING 245
SWIDTH 23437 0
DWIDTH 6 0
BBX 5 9 0 0
BITMAP
68
B0
00
00
70
88
88
88
70
ENDCHAR
STARTCHAR $246
ENCODING 246
SWIDTH 23437 0
DWIDTH 6 0
BBX 5 8 0 0
BITMAP
50
00
00
70
88
88
88
70
ENDCHAR
STARTCHAR $247
ENCODING 247
SWIDTH 23437 0
DWIDTH 6 0
BBX 5 5 0 1
BITMAP
20
00
F8
00
20
ENDCHAR
STARTCHAR $248
ENCODING 248
SWIDTH 23437 0
DWIDTH 6 0
BBX 5 5 0 0
BITMAP
70
98
A8
C8
70
ENDCHAR
STARTCHAR $249
ENCODING 249
SWIDTH 23437 0
DWIDTH 6 0
BBX 5 9 0 0
BITMAP
40
20
00
00
88
88
88
98
68
ENDCHAR
STARTCHAR $250
ENCODING 250
SWIDTH 23437 0
DWIDTH 6 0
BBX 5 9 0 0
BITMAP
10
20
00
00
88
88
88
98
68
ENDCHAR
STARTCHAR $251
ENCODING 251
SWIDTH 23437 0
DWIDTH 6 0
BBX 5 9 0 0
BITMAP
20
50
00
00
88
88
88
98
68
ENDCHAR
STARTCHAR $252
ENCODING 252
SWIDTH 23437 0
DWIDTH 6 0
BBX 5 8 0 0
BITMAP
50
00
00
88
88
88
98
68
ENDCHAR
STARTCHAR $253
ENCODING 253
SWIDTH 23437 0
DWIDTH 6 0
BBX 5 11 0 -2
BITMAP
10
20
00
00
88
88
88
88
78
08
70
ENDCHAR
STARTCHAR $254
ENCODING 254
SWIDTH 23437 0
DWIDTH 6 0
BBX 5 10 0 -2
BITMAP
80
80
80
F0
88
88
88
F0
80
80
ENDCHAR
STARTCHAR $255
ENCODING 255
SWIDTH 23437 0
DWIDTH 6 0
BBX 5 10 0 -2
BITMAP
50
00
00
88
88
88
88
78
08
70
ENDCHAR
ENDFONT
